<svg width="118" height="52" viewBox="0 0 118 52" fill="none" xmlns="http://www.w3.org/2000/svg">
<path d="M78.7595 18.4363H76.7407L76.75 33.5526H84.9269V31.6828H78.7687L78.7595 18.4363Z" fill="#8C929D"/>
<path d="M92.7084 30.9001C92.1991 31.4303 91.3564 31.9606 90.2081 31.9606C88.6709 31.9606 88.0504 31.1978 88.0504 30.2024C88.0504 28.7047 89.0876 27.9885 91.2916 27.9885C91.7083 27.9885 92.375 28.035 92.7177 28.1001V30.9001H92.7084ZM90.6155 21.7373C88.9857 21.7373 87.4855 22.314 86.3187 23.2908L87.0318 24.5373C87.8559 24.0536 88.8653 23.5699 90.3192 23.5699C91.9768 23.5699 92.7084 24.4257 92.7084 25.8582V26.5931C92.3843 26.528 91.7175 26.4815 91.3101 26.4815C87.7726 26.4815 85.9761 27.728 85.9761 30.3327C85.9761 32.6675 87.4022 33.8396 89.5599 33.8396C91.0137 33.8396 92.4121 33.1699 92.8936 32.0815L93.264 33.5606H94.6901V25.821C94.6809 23.3745 93.6252 21.7373 90.6155 21.7373Z" fill="#8C929D"/>
<path d="M101.204 32.0297C100.444 32.0297 99.7777 31.9366 99.2776 31.7041V25.4436V24.718C99.9629 24.1413 100.815 23.7227 101.898 23.7227C103.852 23.7227 104.602 25.1087 104.602 27.3506C104.602 30.532 103.389 32.0297 101.204 32.0297ZM102.056 21.7413C100.25 21.7413 99.2776 22.9785 99.2776 22.9785V21.025L99.2684 18.439H98.3608H97.2959L97.3052 33.1831C98.296 33.6017 99.648 33.825 101.12 33.825C104.889 33.825 106.704 31.4064 106.704 27.2297C106.695 23.9273 105.019 21.7413 102.056 21.7413Z" fill="#8C929D"/>
<path d="M56.7793 20.0764C58.5665 20.0764 59.7241 20.6718 60.4742 21.2764L61.3447 19.7602C60.1686 18.7183 58.5758 18.1602 56.8719 18.1602C52.5751 18.1602 49.5654 20.7927 49.5654 26.1043C49.5654 31.6671 52.8158 33.8346 56.5293 33.8346C58.3906 33.8346 59.9741 33.3974 61.0113 32.9602L60.965 27.016V26.3183V25.1462H55.4551V27.016H58.974L59.0203 31.5276C58.5573 31.7602 57.7609 31.9462 56.6774 31.9462C53.6956 31.9462 51.6953 30.0578 51.6953 26.0857C51.6861 22.0392 53.7511 20.0764 56.7793 20.0764Z" fill="#8C929D"/>
<path d="M70.9964 18.4343H69.0239L69.0332 20.9739V22.0157V22.6204V23.6808V29.7273V29.746C69.0332 32.1925 70.0889 33.8297 73.0985 33.8297C73.5153 33.8297 73.9227 33.7925 74.3117 33.718V31.9413C74.0246 31.9878 73.719 32.0064 73.3949 32.0064C71.7373 32.0064 71.0057 31.1506 71.0057 29.718V23.6715H74.3117V22.0157H71.0057L70.9964 18.4343Z" fill="#8C929D"/>
<path d="M64.0078 33.5527H65.9802V22.0178H64.0078V33.5527Z" fill="#8C929D"/>
<path d="M64.0078 20.427H65.9802V18.4456H64.0078V20.427Z" fill="#8C929D"/>
<path d="M18.5324 12.415L22.0884 23.1494H33.8564L37.4124 12.415C37.5951 11.8617 38.4577 11.8617 38.6391 12.415L43.8831 28.5349C43.9631 28.7762 43.9631 29.0332 43.8924 29.2692H12.0524C11.9808 29.029 11.9841 28.7733 12.0617 28.5349L17.3057 12.415C17.4871 11.8617 18.3497 11.8617 18.5324 12.415Z" fill="#005BBB"/>
<path d="M12.0017 28.8601C11.9797 29.2679 12.1695 29.659 12.5057 29.8986L27.9724 40.9661L27.9817 40.9595L27.9897 40.9661L27.9831 40.9582L43.4391 29.8986C43.7759 29.6589 43.9658 29.2671 43.9431 28.8588H12.0017V28.8601Z" fill="#FFD500"/>
<path opacity="0.32" d="M21.6044 23.805H34.3404L34.4911 23.3526L38.0244 12.6799L43.2484 28.7342C43.3282 28.9653 43.2474 29.2205 43.0484 29.3663L43.0471 29.3689L27.9804 40.1478L27.9724 40.1557L12.8977 29.3689C12.6966 29.2202 12.6164 28.965 12.6964 28.7342L17.9191 12.6799L21.4537 23.3539L21.6044 23.805Z" stroke="white" stroke-linejoin="round"/>
</svg>
